<?xml version="1.0" standalone="no"?>
<!DOCTYPE svg PUBLIC "-//W3C//DTD SVG 1.1//EN" "http://www.w3.org/Graphics/SVG/1.1/DTD/svg11.dtd" >
<svg xmlns="http://www.w3.org/2000/svg" xmlns:xlink="http://www.w3.org/1999/xlink" version="1.1">
<metadata>
Created by FontForge 20201107 at Sat Oct 10 19:30:27 2020
 By Jimmy Wärting
Copyright 2020 Adobe Systems Incorporated. All rights reserved.
</metadata>
<defs>
<font id="Coworking" horiz-adv-x="698" >
  <font-face 
    font-family="Coworking"
    font-weight="400"
    font-stretch="normal"
    units-per-em="1000"
    panose-1="0 0 0 0 0 0 0 0 0 0"
    ascent="750"
    descent="-250"
    cap-height="700"
    bbox="-2 -160 1200 820"
    underline-thickness="50"
    underline-position="-100"
    unicode-range="U+0020-042F"
  />
<missing-glyph horiz-adv-x="800" 
 />
    <glyph glyph-name=".notdef" horiz-adv-x="800" 
 />
    <glyph glyph-name="uni0410" unicode="&#x410;" 
d="M262 320l-225 -320h-37l491 700h37l-245 -350h265v350h150v-700h-150v320h-286z" />
    <glyph glyph-name="uni041B" unicode="&#x41b;" 
d="M548 0v700h150v-700h-150zM37 0h-37l491 700h37z" />
    <glyph glyph-name="uni0422" unicode="&#x422;" horiz-adv-x="793" 
d="M473 670v-670h-150v670h-323v30h793v-30h-320z" />
    <glyph glyph-name="uni0420" unicode="&#x420;" horiz-adv-x="713" 
d="M150 350h283c172 0 172 321 0 321l-283 -1v-320zM150 320v-320h-150v700h523c253 0 253 -380 0 -380h-373z" />
    <glyph glyph-name="uni0424" unicode="&#x424;" horiz-adv-x="1153" 
d="M651 170h143c276 0 276 383 0 381l-143 -1v-380zM651 140v-140h-150v140h-233c-357 0 -357 440 0 440h233v120h150v-120h233c357 0 357 -440 0 -440h-233zM501 170v381h-143c-276 2 -276 -381 0 -381h143z" />
    <glyph glyph-name="uni041A" unicode="&#x41a;" horiz-adv-x="685" 
d="M0 0v700h150v-700h-150zM513 0l-245 350h172l245 -350h-172zM445 700h38l-245 -350h-38z" />
    <glyph glyph-name="uni041D" unicode="&#x41d;" horiz-adv-x="760" 
d="M610 320h-460v-320h-150v700h150v-350h460v350h150v-700h-150v320z" />
    <glyph glyph-name="uni041E" unicode="&#x41e;" horiz-adv-x="900" 
d="M0 349v0c1 294 258 371 450 371c193 0 450 -77 450 -369c0 -294 -258 -371 -450 -371c-193 0 -450 77 -450 369zM149 350c-1 -218 93 -339 301 -340s301 132 301 341c0 208 -93 339 -301 339s-300 -122 -301 -340z" />
    <glyph glyph-name="uni0416" unicode="&#x416;" horiz-adv-x="1180" 
d="M515 0v700h150v-700h-150zM1008 0l-245 350h172l245 -350h-172zM940 700h38l-245 -350h-38zM172 0h-172l245 350h172zM240 700l245 -350h-38l-245 350h38z" />
    <glyph glyph-name="M" unicode="M" horiz-adv-x="1149" 
d="M38 0h-38l491 700h38zM1149 700v-700h-150v700h150zM979 700l-430 -616v616h150v-345l242 345h38z" />
    <glyph glyph-name="uni0423" unicode="&#x423;" horiz-adv-x="801" 
d="M281 300l-281 400h172l281 -400h-172zM310 0h-37l491 700h37z" />
    <glyph glyph-name="uni0418" unicode="&#x418;" horiz-adv-x="762" 
d="M762 0h-150v700h150v-700zM139 0h-139v700h150v-630l394 560h38z" />
    <glyph glyph-name="uni041F" unicode="&#x41f;" horiz-adv-x="760" 
d="M610 670h-460v-670h-150v700h760v-700h-150v670z" />
    <glyph glyph-name="V" unicode="V" horiz-adv-x="726" 
d="M0 700h172l494 -700h-172zM726 700v-700h-30v700h30z" />
    <glyph glyph-name="A" unicode="A" 
d="M262 320l-225 -320h-37l491 700h37l-245 -350h265v350h150v-700h-150v320h-286z" />
    <glyph glyph-name="K" unicode="K" horiz-adv-x="685" 
d="M0 0v700h150v-700h-150zM513 0l-245 350h172l245 -350h-172zM445 700h38l-245 -350h-38z" />
    <glyph glyph-name="N" unicode="N" horiz-adv-x="716" 
d="M716 0h-172l-494 700h172l464 -658v658h30v-700zM0 0v700h30v-700h-30z" />
    <glyph glyph-name="O" unicode="O" horiz-adv-x="900" 
d="M0 349v0c1 294 258 371 450 371c193 0 450 -77 450 -369c0 -294 -258 -371 -450 -371c-193 0 -450 77 -450 369zM149 350c-1 -218 93 -339 301 -340s301 132 301 341c0 208 -93 339 -301 339s-300 -122 -301 -340z" />
    <glyph glyph-name="I" unicode="I" horiz-adv-x="150" 
d="M0 0v700h150v-700h-150z" />
    <glyph glyph-name="space" unicode=" " horiz-adv-x="800" 
 />
    <glyph glyph-name="E" unicode="E" horiz-adv-x="633" 
d="M633 0h-633v700h573v-30h-423v-320h252l-21 -30h-231v-290h483v-30z" />
    <glyph glyph-name="L" unicode="L" horiz-adv-x="573" 
d="M150 30h423v-30h-573v700h150v-670z" />
    <glyph glyph-name="U" unicode="U" horiz-adv-x="798" 
d="M798 0h-378c-192 0 -419 57 -420 300v400h150v-400c0 -218 102 -270 270 -270h228v670h150v-700z" />
    <glyph glyph-name="C" unicode="C" horiz-adv-x="841" 
d="M709 147h132c-87 -123 -255 -167 -391 -167c-193 0 -450 77 -450 369v0c1 294 258 371 450 371c138 0 308 -44 394 -170h-134c-46 89 -130 140 -260 140c-208 0 -300 -122 -301 -340s93 -339 301 -340c128 -1 213 50 259 137z" />
    <glyph glyph-name="T" unicode="T" horiz-adv-x="793" 
d="M473 670v-670h-150v670h-323v30h793v-30h-320z" />
    <glyph glyph-name="H" unicode="H" horiz-adv-x="760" 
d="M610 320h-460v-320h-150v700h150v-350h460v350h150v-700h-150v320z" />
    <glyph glyph-name="P" unicode="P" horiz-adv-x="712" 
d="M150 350h283c172 0 172 321 0 321l-283 -1v-320zM150 320v-320h-150v700h523c253 0 253 -380 0 -380h-373z" />
    <glyph glyph-name="R" unicode="R" horiz-adv-x="727" 
d="M310 350h123c172 0 172 322 0 321l-283 -1v-670h-150v700h523c253 0 254 -380 0 -380h-21l225 -320h-172z" />
    <glyph glyph-name="uni042F" unicode="&#x42f;" horiz-adv-x="727" 
d="M262 320l-224 -320h-38l225 320h-21c-253 0 -253 380 0 380h523v-700h-150v320h-315zM577 350v321h-283c-172 0 -172 -321 0 -321h283z" />
    <glyph glyph-name="D" unicode="D" horiz-adv-x="749" 
d="M0 0v700h350c193 0 400 -107 400 -349c-1 -244 -208 -351 -400 -351h-350zM150 30h150c168 0 300 102 300 320c0 208 -132 320 -300 320h-150v-640z" />
    <glyph glyph-name="W" unicode="W" horiz-adv-x="1097" 
d="M0 700h172l494 -700h-172zM726 197v-197h-30v239l-325 461h172l163 -231v231h30v-273l301 -427h-172zM1097 700v-700h-30v700h30z" />
    <glyph glyph-name="uni0421" unicode="&#x421;" horiz-adv-x="841" 
d="M841 147c-87 -123 -255 -167 -391 -167c-193 0 -450 77 -450 369c1 294 258 371 450 371c138 0 308 -44 394 -170h-134c-46 89 -130 140 -260 140c-208 0 -300 -122 -301 -340s93 -339 301 -340c128 -1 213 50 259 137h132z" />
    <glyph glyph-name="uni0415" unicode="&#x415;" horiz-adv-x="633" 
d="M633 0h-633v700h573v-30h-423v-320h252l-21 -30h-231v-290h483v-30z" />
    <glyph glyph-name="G" unicode="G" horiz-adv-x="859" 
d="M709 147v173h-213l22 30h341v-203c-87 -123 -273 -167 -409 -167c-193 0 -450 77 -450 369c1 294 258 371 450 371c138 0 308 -44 394 -170h-134c-46 89 -130 140 -260 140c-208 0 -300 -122 -301 -340s93 -339 301 -340c128 -1 213 50 259 137z" />
    <glyph glyph-name="F" unicode="F" horiz-adv-x="623" 
d="M150 320v-320h-150v700h623v-30h-473v-320h295l-20 -30h-275z" />
    <glyph glyph-name="X" unicode="X" horiz-adv-x="731" 
d="M298 373l-261 -373h-37l280 399l-210 301h172l164 -236l166 236h37l-184 -263l306 -437h-172z" />
    <glyph glyph-name="B" unicode="B" horiz-adv-x="753" 
d="M606 386v-10c208 -41 195 -376 -43 -376h-563v700h513c190 0 221 -234 93 -314zM150 380h273c159 0 159 291 0 291l-273 -1v-290zM150 350v-320l323 -1c172 -1 172 321 0 321h-323z" />
    <glyph glyph-name="Z" unicode="Z" horiz-adv-x="713" 
d="M713 0h-713l473 670h-460v30h653l-473 -670h520v-30z" />
    <glyph glyph-name="J" unicode="J" horiz-adv-x="673" 
d="M673 700v-478c0 -211 -182 -242 -308 -242s-289 66 -365 167h147c54 -84 114 -137 218 -137s158 67 158 181v509h150z" />
    <glyph glyph-name="Q" unicode="Q" horiz-adv-x="900" 
d="M580 31l-143 206h170l242 -345h-172l-73 105c-50 -12 -105 -17 -154 -17c-193 0 -450 77 -450 369v0c1 294 258 371 450 371c193 0 450 -77 450 -369c0 -89 -24 -158 -62 -211h-134c32 56 47 127 47 211c0 208 -93 339 -301 339s-300 -122 -301 -340s93 -339 301 -340
c50 0 89 6 130 21z" />
    <glyph glyph-name="Y" unicode="Y" horiz-adv-x="734" 
d="M282 300l-282 400h172l264 -374l261 374h37l-280 -400v-300h-172v300z" />
    <glyph glyph-name="S" unicode="S" horiz-adv-x="834" 
d="M420 690c-97 0 -206 -14 -208 -129c-4 -226 621 -76 621 -373c0 -164 -209 -207 -408 -208c-138 0 -338 44 -424 170h134c46 -89 160 -140 290 -140c182 5 239 69 239 199c0 252 -620 121 -621 330c-1 147 259 181 377 181c138 0 308 -44 394 -170h-134
c-46 89 -130 140 -260 140z" />
    <glyph glyph-name="m" unicode="m" horiz-adv-x="833" 
 />
    <glyph glyph-name="uni0411" unicode="&#x411;" horiz-adv-x="729" 
d="M150 30l299 -1c172 0 172 321 0 321h-299v-320zM539 0h-539v700h609v-30h-459v-290h389c253 0 253 -380 0 -380z" />
    <glyph glyph-name="uni0412" unicode="&#x412;" horiz-adv-x="753" 
d="M606 386v-10v0c208 -41 195 -376 -43 -376h-563v700h513c190 0 221 -234 93 -314zM150 380h273c159 0 159 291 0 291l-273 -1v-290zM150 350v-320l323 -1c172 -1 172 321 0 321h-323z" />
    <glyph glyph-name="uni0425" unicode="&#x425;" horiz-adv-x="731" 
d="M298 373l-261 -373h-37l280 399l-210 301h172l164 -236l166 236h37l-184 -263l306 -437h-172z" />
    <glyph glyph-name="uni0413" unicode="&#x413;" horiz-adv-x="623" 
d="M150 670v-670h-150v700h623v-30h-473z" />
    <glyph glyph-name="uni0427" unicode="&#x427;" horiz-adv-x="750" 
d="M280 350h320v350h150v-700h-150v320h-410c-127 0 -190 95 -190 190v190h150l1 -190c0 -80 43 -160 129 -160z" />
    <glyph glyph-name="uni042C" unicode="&#x42c;" horiz-adv-x="723" 
d="M150 350h383c253 0 253 -350 0 -350h-533v700h150v-350zM150 320v-290l293 -1c172 0 172 291 0 291h-293z" />
    <glyph glyph-name="uni0414" unicode="&#x414;" horiz-adv-x="838" 
d="M698 30h140v-30h-838l491 700h37l-470 -670h490v670h150v-670z" />
    <glyph glyph-name="uni042D" unicode="&#x42d;" horiz-adv-x="845" 
d="M695 320h-363l21 30h342c-1 218 -93 340 -301 340c-130 0 -214 -51 -260 -140h-134c86 126 256 170 394 170c192 0 449 -77 450 -371c0 -292 -257 -369 -450 -369c-136 0 -304 44 -391 167h132c46 -87 131 -138 259 -137c199 1 294 110 301 310z" />
    <glyph glyph-name="uni042E" unicode="&#x42e;" horiz-adv-x="1200" 
d="M150 320v-320h-150v700h150v-350h150c1 294 258 370 450 370c193 0 450 -77 450 -369c0 -294 -258 -371 -450 -371c-187 0 -433 71 -449 340h-151zM449 350c-1 -218 93 -339 301 -340s301 132 301 341c0 208 -93 339 -301 339s-300 -122 -301 -340z" />
    <glyph glyph-name="uni042A" unicode="&#x42a;" horiz-adv-x="909" 
d="M337 350h383c253 0 253 -350 0 -350h-533v670h-187v30h337v-350zM337 320v-290l293 -1c172 0 172 291 0 291h-293z" />
    <glyph glyph-name="uni042B" unicode="&#x42b;" horiz-adv-x="936" 
d="M786 0v700h150v-700h-150zM150 350h383c253 0 253 -350 0 -350h-533v700h150v-350zM150 320v-290l293 -1c172 0 172 291 0 291h-293z" />
    <glyph glyph-name="uni0426" unicode="&#x426;" horiz-adv-x="850" 
d="M820 0h-820v700h150v-670h430v670h150v-670h120v-190h-30v160z" />
    <glyph glyph-name="uni0429" unicode="&#x429;" horiz-adv-x="1081" 
d="M1051 0h-1051v700h150v-670h250v670h150v-670h250v670h150v-670h131v-190h-30v160z" />
    <glyph glyph-name="uni0428" unicode="&#x428;" horiz-adv-x="950" 
d="M950 0h-950v700h150v-670h250v670h150v-670h250v670h150v-700z" />
    <glyph glyph-name="uni0419" unicode="&#x419;" horiz-adv-x="762" 
d="M514 800v-30h-283v30h283zM762 0h-150v700h150v-700zM139 0h-139v700h150v-630l394 560h38z" />
    <glyph glyph-name="uni0417" unicode="&#x417;" horiz-adv-x="824" 
d="M630 380v-10c95 -11 193 -64 194 -182c1 -94 -119 -207 -408 -208c-138 0 -328 44 -414 170h134c46 -89 150 -140 280 -140c172 5 251 79 249 179c-2 130 -134 161 -292 161v30c84 0 265 -2 262 151c-2 95 -71 159 -208 159c-130 0 -214 -51 -260 -140h-134
c86 126 256 170 394 170c268 0 348 -104 347 -181c1 -76 -80 -138 -144 -159z" />
    <glyph glyph-name="uni0401" unicode="&#x401;" horiz-adv-x="633" 
d="M313 820l-21 -30h-112v30h133zM496 820v-30h-174l21 30h153zM633 0h-633v700h573v-30h-423v-320h252l-21 -30h-231v-290h483v-30z" />
    <glyph glyph-name="one" unicode="1" horiz-adv-x="433" 
d="M433 700v-700h-150v670h-283v30h433z" />
    <glyph glyph-name="zero" unicode="0" horiz-adv-x="820" 
d="M0 349v0c1 294 218 371 410 371c193 0 410 -77 410 -369c0 -294 -218 -371 -410 -371c-193 0 -410 77 -410 369zM149 350c-1 -168 53 -339 261 -340s261 182 261 341c0 158 -53 339 -261 339s-260 -172 -261 -340z" />
    <glyph glyph-name="seven" unicode="7" horiz-adv-x="664" 
d="M543 580h-543l84 120h580l-491 -700h-43z" />
    <glyph glyph-name="three" unicode="3" horiz-adv-x="701" 
d="M599 700l-173 -249c390 -43 360 -471 -110 -471c-98 0 -250 44 -315 160h30c69 -111 215 -130 285 -130c238 3 345 340 6 340l161 230h-406l84 120h438z" />
    <glyph glyph-name="four" unicode="4" horiz-adv-x="708" 
d="M408 200h-408l351 500h37l-330 -470h350v470h150v-470h150l-21 -30h-129v-200h-150v200z" />
    <glyph glyph-name="two" unicode="2" horiz-adv-x="657" 
d="M573 0h-573c176 178 433 322 432 525c-1 190 -303 197 -388 28h-30c105 229 582 228 578 -35c-2 -147 -328 -336 -406 -398h471z" />
    <glyph glyph-name="five" unicode="5" horiz-adv-x="666" 
d="M166 580v-173c92 58 509 46 509 -201c0 -107 -92 -226 -359 -226c-98 0 -250 44 -315 160h30c69 -111 215 -130 285 -130c136 2 200 103 200 198c0 201 -233 248 -380 142v350h499l-84 -120h-385z" />
    <glyph glyph-name="six" unicode="6" horiz-adv-x="763" 
d="M384 431c-60 0 -178 -13 -236 -138c3 -91 51 -283 236 -283c166 0 220 113 220 208c0 168 -114 209 -220 213zM733 560h-90c-41 79 -122 128 -260 127c-172 -1 -229 -161 -234 -337c48 81 166 108 235 108c267 0 379 -105 379 -242c0 -107 -112 -236 -379 -236
c-239 0 -384 152 -385 370c-1 228 161 363 385 367c202 4 317 -88 349 -157z" />
    <glyph glyph-name="nine" unicode="9" horiz-adv-x="762" 
d="M377 270c60 0 178 13 236 138c-3 91 -51 283 -236 283c-166 0 -220 -113 -220 -208c0 -168 114 -209 220 -213zM28 141h90c41 -79 122 -128 260 -127c172 1 229 161 234 337c-48 -81 -166 -108 -235 -108c-267 0 -379 105 -379 242c0 107 112 236 379 236
c239 0 384 -152 385 -370c1 -228 -161 -363 -385 -367c-202 -4 -317 88 -349 157z" />
    <glyph glyph-name="eight" unicode="8" horiz-adv-x="752" 
d="M461 413c74 21 125 55 124 130c-2 103 -111 146 -222 147c-126 1 -213 -39 -227 -96c-27 -110 218 -159 325 -181zM501 399c131 -38 251 -92 251 -213c0 -135 -149 -207 -389 -206c-237 1 -364 98 -364 211c0 111 92 152 201 174c-100 33 -177 81 -176 174
c1 116 113 181 339 181c188 0 316 -67 316 -176c0 -90 -80 -124 -178 -145zM248 350c-83 -25 -144 -68 -145 -158c-1 -109 105 -182 260 -182c130 0 253 42 247 164c-5 100 -199 130 -362 176z" />
    <glyph glyph-name="period" unicode="." horiz-adv-x="334" 
d="M141 0v88h88v-88h-88z" />
    <glyph glyph-name="comma" unicode="," horiz-adv-x="396" 
d="M168 0v88h88v-88l-77 -110h-30l77 110h-58z" />
    <glyph glyph-name="exclam" unicode="!" horiz-adv-x="395" 
d="M167 0v88h88v-88h-88zM187 138l-60 562h168l-60 -562h-48z" />
    <glyph glyph-name="semicolon" unicode=";" horiz-adv-x="409" 
d="M168 0v88h88v-88l-77 -110h-30l77 110h-58zM168 330v88h88v-88h-88z" />
    <glyph glyph-name="colon" unicode=":" horiz-adv-x="415" 
d="M168 0v88h88v-88h-88zM168 330v88h88v-88h-88z" />
    <glyph glyph-name="quotedbl" unicode="&#x22;" horiz-adv-x="562" 
d="M168 612v88h88v-88l-77 -110h-30l77 110h-58zM328 612v88h88v-88l-77 -110h-30l77 110h-58z" />
    <glyph glyph-name="plus" unicode="+" horiz-adv-x="616" 
d="M265 335h-185v30h185v185h40v-185h175v-30h-175v-185h-40v185z" />
    <glyph glyph-name="uni041C" unicode="&#x41c;" horiz-adv-x="1149" 
d="M38 0h-38l491 700h38zM1149 700v-700h-150v700h150zM979 700l-430 -616v616h150v-345l242 345h38z" />
    </font>
</defs>
</svg>
